<svg id="Ebene_1" data-name="Ebene 1" xmlns="http://www.w3.org/2000/svg" viewBox="0 0 84.06 76.77"><defs><style>.cls-1{fill:#73a4bf;}.cls-2{fill:#fff;}</style></defs><path class="cls-1" d="M3.76,32.42v-28H8L20.28,24.86H18l12-20.44h4.28l.08,28h-5V12.14h1L20.28,29.26H17.92L7.52,12.14h1.2V32.42Z"/><path class="cls-1" d="M47.16,32.42H42v-28h5.2ZM62,20.42H46.76V16H62Zm-.4-16H66.8v28H61.64Z"/><path class="cls-2" d="M3.76,72.42v-28H16A17.44,17.44,0,0,1,24,46.16a13,13,0,0,1,5.38,4.9,13.9,13.9,0,0,1,1.92,7.36,13.88,13.88,0,0,1-1.92,7.36A12.9,12.9,0,0,1,24,70.68,17.44,17.44,0,0,1,16,72.42ZM9,68h6.76a11.64,11.64,0,0,0,5.46-1.2,9,9,0,0,0,3.6-3.36,10.5,10.5,0,0,0,0-10.12A9.09,9.09,0,0,0,21.18,50a11.64,11.64,0,0,0-5.46-1.2H9Z"/><path class="cls-2" d="M46.36,72.7a13,13,0,0,1-6.22-1.42A10.29,10.29,0,0,1,36,67.4a10.89,10.89,0,0,1-1.46-5.66A11.09,11.09,0,0,1,36,56.08,10.36,10.36,0,0,1,39.9,52.2a11.42,11.42,0,0,1,5.7-1.42,11.1,11.1,0,0,1,5.56,1.38A10,10,0,0,1,55,56a11.84,11.84,0,0,1,1.4,5.88c0,.19,0,.42,0,.7a7.15,7.15,0,0,1-.06.74H38.52V60H53.68l-2,1a6.25,6.25,0,0,0-.74-3.22,5.59,5.59,0,0,0-2.14-2.2,6.32,6.32,0,0,0-3.2-.78,6.59,6.59,0,0,0-3.22.78,5.3,5.3,0,0,0-2.18,2.22,7,7,0,0,0-.76,3.32V62a6.66,6.66,0,0,0,.86,3.4,5.77,5.77,0,0,0,2.46,2.3,8,8,0,0,0,3.72.82,8.35,8.35,0,0,0,3.24-.6,7.53,7.53,0,0,0,2.56-1.76L55,69.26a9.55,9.55,0,0,1-3.66,2.56A13.13,13.13,0,0,1,46.36,72.7Z"/><path class="cls-2" d="M66.48,72.42,57.32,51.06h5.16L70.4,69.9H67.84L76,51.06h4.8L71.64,72.42Z"/></svg>